{"title":"The Silver Darlings (1947) webrip x264-pong","uid":15594716,"size":712993342,"categoryP":"video","categoryS":"movies","magnet":"?xt=urn:btih:8f69f919dc1dd4a4f88a5f335c5e28501dc30eee&amp;dn=The+Silver+Darlings+%281947%29+webrip+x264-pong&amp;tr=udp%3A%2F%2Ftracker.leechers-paradise.org%3A6969&amp;tr=udp%3A%2F%2Fzer0day.ch%3A1337&amp;tr=udp%3A%2F%2Fopen.demonii.com%3A1337&amp;tr=udp%3A%2F%2Ftracker.coppersurfer.tk%3A6969&amp;tr=udp%3A%2F%2Fexodus.desync.com%3A6969","seeders":1,"leechers":1,"uploader":"Pongydog","files":1,"time":1471553559,"description":"http://www.imdb.com/title/tt0039824\r\n\r\n\r\nSet on the rugged north-east coast of Scotland in the 1800s, Catrine is the wife of a dispossessed farmer who hates his new life as a herring fisherman. When he is press-ganged by the Royal Navy, she must face life without him. \r\n\r\nDirector: Clarence Elder  \r\n\r\nWriters: Clarence Elder (script),  Neil M. Gunn (novel) (as Neil Gunn)  \r\n\r\nStars: Norman Williams,  Christopher Capon,  Murdo Morrison  | See full cast &amp; crew » \r\n\r\nGeneral\r\nComplete name                            : C:Usersuser1VideosThe Silver Darlings (1947) webrip x264-pong.mp4\r\nFormat                                   : MPEG-4\r\nFormat profile                           : Base Media\r\nCodec ID                                 : isom (isom/iso2/avc1/mp41)\r\nFile size                                : 680 MiB\r\nDuration                                 : 1h 21mn\r\nOverall bit rate                         : 1 170 Kbps\r\nEncoded date                             : UTC 2016-08-11 04:01:51\r\nTagged date                              : UTC 2016-08-11 04:01:51\r\nWriting application                      : Lavf57.36.100\r\n\r\nVideo\r\nID                                       : 1\r\nFormat                                   : AVC\r\nFormat/Info                              : Advanced Video Codec\r\nFormat profile                           :   \r\nFormat settings, CABAC                   : Yes\r\nFormat settings, ReFrames                : 5 frames\r\nCodec ID                                 : avc1\r\nCodec ID/Info                            : Advanced Video Coding\r\nDuration                                 : 1h 21mn\r\nBit rate                                 : 1 100 Kbps\r\nWidth                                    : 692 pixels\r\nHeight                                   : 540 pixels\r\nDisplay aspect ratio                     : 1.281\r\nFrame rate mode                          : Constant\r\nFrame rate                               : 25.000 fps\r\nColor space                              : YUV\r\nChroma subsampling                       : 4:2:0\r\nBit depth                                : 8 bits\r\nScan type                                : Progressive\r\nBits/(Pixel*Frame)                       : 0.118\r\nStream size                              : 640 MiB (94%)\r\nWriting library                          : x264 core 148 r2643\r\nEncoding settings                        : cabac=1 / ref=5 / deblock=1:0:0 / analyse=0x1:0x131 / me=umh / subme=8 / psy=1 / psy_rd=1.00:0.00 / mixed_ref=0 / me_range=16 / chroma_me=1 / trellis=2 / 8x8dct=0 / cqm=0 / deadzone=21,11 / fast_pskip=1 / chroma_qp_offset=-2 / threads=3 / lookahead_threads=1 / sliced_threads=0 / nr=0 / decimate=1 / interlaced=0 / bluray_compat=0 / constrained_intra=0 / bframes=3 / b_pyramid=0 / b_adapt=2 / b_bias=0 / direct=3 / weightb=1 / open_gop=0 / weightp=2 / keyint=250 / keyint_min=25 / scenecut=40 / intra_refresh=0 / rc_lookahead=50 / rc=2pass / mbtree=1 / bitrate=1100 / ratetol=1.0 / qcomp=0.60 / qpmin=10 / qpmax=69 / qpstep=4 / cplxblur=20.0 / qblur=0.5 / vbv_maxrate=2400 / vbv_bufsize=24000 / nal_hrd=none / filler=0 / ip_ratio=1.40 / aq=3:1.00\r\nEncoded date                             : UTC 2016-08-11 04:01:51\r\nTagged date                              : UTC 2016-08-11 04:01:51\r\n\r\nAudio\r\nID                                       : 2\r\nFormat                                   : AAC\r\nFormat/Info                              : Advanced Audio Codec\r\nFormat profile                           : LC\r\nCodec ID                                 : 40\r\nDuration                                 : 1h 21mn\r\nBit rate mode                            : Constant\r\nBit rate                                 : 63.8 Kbps\r\nChannel(s)                               : 2 channels\r\nChannel(s)_Original                      : 1 channel\r\nChannel positions                        : Front: C\r\nSampling rate                            : 48.0 KHz\r\nFrame rate                               : 46.875 fps (1024 spf)\r\nCompression mode                         : Lossy\r\nStream size                              : 37.1 MiB (5%)\r\nLanguage                                 : English\r\nDefault                                  : Yes\r\nAlternate group                          : 1\r\nEncoded date                             : UTC 2016-08-11 04:01:51\r\nTagged date                              : UTC 2016-08-11 04:01:51","torrent":{"xt":"urn:btih:8f69f919dc1dd4a4f88a5f335c5e28501dc30eee","amp;dn":"The+Silver+Darlings+%281947%29+webrip+x264-pong","amp;tr":["udp%3A%2F%2Ftracker.leechers-paradise.org%3A6969","udp%3A%2F%2Fzer0day.ch%3A1337","udp%3A%2F%2Fopen.demonii.com%3A1337","udp%3A%2F%2Ftracker.coppersurfer.tk%3A6969","udp%3A%2F%2Fexodus.desync.com%3A6969"],"infoHash":"8f69f919dc1dd4a4f88a5f335c5e28501dc30eee","infoHashBuffer":{"type":"Buffer","data":[143,105,249,25,220,29,212,164,248,138,95,51,92,94,40,80,29,195,14,238]},"announce":[],"urlList":[]}}